HIERARCHY
ROOT Hips
{
	OFFSET 0.000000 83.214638 0.000000
	CHANNELS 6 Xposition Yposition Zposition Xrotation Yrotation Zrotation
	JOINT Pelvis
	{
		OFFSET 0.000000 0.000000 0.000000
		CHANNELS 3 Xrotation Yrotation Zrotation
		JOINT LeftUpLeg
		{
			OFFSET 8.479700 -4.795502 -0.379100
			CHANNELS 3 Xrotation Yrotation Zrotation
			JOINT LeftLeg
			{
				OFFSET 0.024144 -32.555107 0.112900
				CHANNELS 3 Xrotation Yrotation Zrotation
				JOINT LeftFoot
				{
					OFFSET -0.024144 -32.638630 -3.012600
					CHANNELS 3 Xrotation Yrotation Zrotation
					JOINT LeftToeBase
					{
						OFFSET 0.970200 -13.225400 11.864200
						CHANNELS 3 Xrotation Yrotation Zrotation
						End Site
						{
							OFFSET 0.000000 12.319262 0.000000
						}
					}
					JOINT LFootTongue
					{
						OFFSET 1.142400 -1.059800 6.665200
						CHANNELS 3 Xrotation Yrotation Zrotation
						End Site
						{
							OFFSET 0.000000 12.319262 0.000000
						}
					}
				}
				JOINT LeftPantLeg
				{
					OFFSET 0.918482 -16.533964 -2.284700
					CHANNELS 3 Xrotation Yrotation Zrotation
					End Site
					{
						OFFSET 0.350399 24.744368 0.000000
					}
				}
			}
		}
		JOINT RightUpLeg
		{
			OFFSET -8.479700 -4.795502 -0.379100
			CHANNELS 3 Xrotation Yrotation Zrotation
			JOINT RightLeg
			{
				OFFSET -0.023144 -32.555092 0.112900
				CHANNELS 3 Xrotation Yrotation Zrotation
				JOINT RightFoot
				{
					OFFSET 0.023144 -32.638641 -3.012700
					CHANNELS 3 Xrotation Yrotation Zrotation
					JOINT RightToeBase
					{
						OFFSET -0.970200 -13.225400 11.864200
						CHANNELS 3 Xrotation Yrotation Zrotation
						End Site
						{
							OFFSET 0.000000 12.319244 0.000000
						}
					}
					JOINT RFootTongue
					{
						OFFSET -1.142200 -1.059800 6.665200
						CHANNELS 3 Xrotation Yrotation Zrotation
						End Site
						{
							OFFSET 0.000000 12.319243 0.000000
						}
					}
				}
				JOINT RightPantLeg
				{
					OFFSET -0.919482 -16.533978 -2.284800
					CHANNELS 3 Xrotation Yrotation Zrotation
					End Site
					{
						OFFSET -0.350400 24.744419 0.000000
					}
				}
			}
		}
	}
	JOINT Spine
	{
		OFFSET 0.000000 7.722000 1.166200
		CHANNELS 3 Xrotation Yrotation Zrotation
		JOINT Spine1
		{
			OFFSET 0.000000 12.024101 0.248800
			CHANNELS 3 Xrotation Yrotation Zrotation
			JOINT Spine2
			{
				OFFSET 0.000000 11.502998 -0.491200
				CHANNELS 3 Xrotation Yrotation Zrotation
				JOINT Neck
				{
					OFFSET 0.000000 18.430702 -3.123100
					CHANNELS 3 Xrotation Yrotation Zrotation
					JOINT Head
					{
						OFFSET 0.000000 9.051102 1.034000
						CHANNELS 3 Xrotation Yrotation Zrotation
						JOINT HairB
						{
							OFFSET 0.208400 24.786102 24.822300
							CHANNELS 3 Xrotation Yrotation Zrotation
							End Site
							{
								OFFSET 0.000000 32.263779 0.000000
							}
						}
						JOINT HairA
						{
							OFFSET -7.081100 24.428299 23.196600
							CHANNELS 3 Xrotation Yrotation Zrotation
							End Site
							{
								OFFSET 0.000000 32.263779 0.000000
							}
						}
						JOINT Hat
						{
							OFFSET 16.728800 15.048294 -15.439601
							CHANNELS 3 Xrotation Yrotation Zrotation
							End Site
							{
								OFFSET 0.000000 32.263779 0.000000
							}
						}
					}
				}
				JOINT LeftShoulder
				{
					OFFSET 6.197800 13.665199 -4.064700
					CHANNELS 3 Xrotation Yrotation Zrotation
					JOINT LeftArm
					{
						OFFSET 7.778100 -0.187103 -1.709300
						CHANNELS 3 Xrotation Yrotation Zrotation
						JOINT LeftForeArm
						{
							OFFSET 22.049376 0.000000 0.000000
							CHANNELS 3 Xrotation Yrotation Zrotation
							JOINT LeftHand
							{
								OFFSET 23.009392 0.000000 0.000000
								CHANNELS 3 Xrotation Yrotation Zrotation
								JOINT LeftHandThumb1
								{
									OFFSET 3.507191 -2.063065 3.133727
									CHANNELS 3 Xrotation Yrotation Zrotation
									JOINT LeftHandThumb2
									{
										OFFSET 3.101337 -1.790558 1.790558
										CHANNELS 3 Xrotation Yrotation Zrotation
										JOINT LeftHandThumb3
										{
											OFFSET 3.058640 -1.765907 1.765906
											CHANNELS 3 Xrotation Yrotation Zrotation
											End Site
											{
												OFFSET -0.415260 3.926476 -0.049563
											}
										}
									}
								}
								JOINT LeftHandIndex1
								{
									OFFSET 11.334419 -0.901459 3.706815
									CHANNELS 3 Xrotation Yrotation Zrotation
									JOINT LeftHandIndex2
									{
										OFFSET 3.283112 0.000000 0.000000
										CHANNELS 3 Xrotation Yrotation Zrotation
										JOINT LeftHandIndex3
										{
											OFFSET 3.323853 0.000000 0.000000
											CHANNELS 3 Xrotation Yrotation Zrotation
											End Site
											{
												OFFSET -1.135597 3.097809 0.402452
											}
										}
									}
								}
								JOINT LeftHandMiddle1
								{
									OFFSET 11.335861 0.000000 0.000000
									CHANNELS 3 Xrotation Yrotation Zrotation
									JOINT LeftHandMiddle2
									{
										OFFSET 3.410492 0.000000 0.000000
										CHANNELS 3 Xrotation Yrotation Zrotation
										JOINT LeftHandMiddle3
										{
											OFFSET 3.312172 0.000000 0.000000
											CHANNELS 3 Xrotation Yrotation Zrotation
											End Site
											{
												OFFSET -1.150200 3.080154 0.400270
											}
										}
									}
								}
								JOINT LeftHandRing1
								{
									OFFSET 11.514786 -0.013176 -3.003090
									CHANNELS 3 Xrotation Yrotation Zrotation
									JOINT LeftHandRing2
									{
										OFFSET 3.053307 0.000000 0.000000
										CHANNELS 3 Xrotation Yrotation Zrotation
										JOINT LeftHandRing3
										{
											OFFSET 3.295807 0.000000 0.000000
											CHANNELS 3 Xrotation Yrotation Zrotation
											End Site
											{
												OFFSET -1.281006 3.013344 0.375733
											}
										}
									}
								}
								JOINT LeftHandPinky1
								{
									OFFSET 10.518692 -0.960396 -5.730441
									CHANNELS 3 Xrotation Yrotation Zrotation
									JOINT LeftHandPinky2
									{
										OFFSET 2.861649 0.000000 0.000000
										CHANNELS 3 Xrotation Yrotation Zrotation
										JOINT LeftHandPinky3
										{
											OFFSET 2.863380 0.000000 0.000000
											CHANNELS 3 Xrotation Yrotation Zrotation
											End Site
											{
												OFFSET -0.843597 2.711159 0.369971
											}
										}
									}
								}
							}
							JOINT LSleeve
							{
								OFFSET 6.676277 -0.344902 -1.011730
								CHANNELS 3 Xrotation Yrotation Zrotation
								End Site
								{
									OFFSET 0.000000 14.885353 0.000000
								}
							}
						}
					}
				}
				JOINT RightShoulder
				{
					OFFSET -6.197800 13.665199 -4.064700
					CHANNELS 3 Xrotation Yrotation Zrotation
					JOINT RightArm
					{
						OFFSET -7.778100 -0.187103 -1.709300
						CHANNELS 3 Xrotation Yrotation Zrotation
						JOINT RightForeArm
						{
							OFFSET -22.049376 0.000000 0.000000
							CHANNELS 3 Xrotation Yrotation Zrotation
							JOINT RightHand
							{
								OFFSET -23.009392 0.000000 0.000000
								CHANNELS 3 Xrotation Yrotation Zrotation
								JOINT RightHandThumb1
								{
									OFFSET -3.507191 -2.063065 3.133727
									CHANNELS 3 Xrotation Yrotation Zrotation
									JOINT RightHandThumb2
									{
										OFFSET -3.101337 -1.790558 1.790558
										CHANNELS 3 Xrotation Yrotation Zrotation
										JOINT RightHandThumb3
										{
											OFFSET -3.058640 -1.765907 1.765906
											CHANNELS 3 Xrotation Yrotation Zrotation
											End Site
											{
												OFFSET 0.415260 3.926476 -0.049563
											}
										}
									}
								}
								JOINT RightHandIndex1
								{
									OFFSET -11.334419 -0.901459 3.706815
									CHANNELS 3 Xrotation Yrotation Zrotation
									JOINT RightHandIndex2
									{
										OFFSET -3.283112 0.000000 0.000000
										CHANNELS 3 Xrotation Yrotation Zrotation
										JOINT RightHandIndex3
										{
											OFFSET -3.323853 0.000000 0.000000
											CHANNELS 3 Xrotation Yrotation Zrotation
											End Site
											{
												OFFSET 1.135597 3.097809 0.402452
											}
										}
									}
								}
								JOINT RightHandMiddle1
								{
									OFFSET -11.335861 0.000000 0.000000
									CHANNELS 3 Xrotation Yrotation Zrotation
									JOINT RightHandMiddle2
									{
										OFFSET -3.410492 0.000000 0.000000
										CHANNELS 3 Xrotation Yrotation Zrotation
										JOINT RightHandMiddle3
										{
											OFFSET -3.312172 0.000000 0.000000
											CHANNELS 3 Xrotation Yrotation Zrotation
											End Site
											{
												OFFSET 1.150200 3.080154 0.400270
											}
										}
									}
								}
								JOINT RightHandRing1
								{
									OFFSET -11.514786 -0.013176 -3.003090
									CHANNELS 3 Xrotation Yrotation Zrotation
									JOINT RightHandRing2
									{
										OFFSET -3.053307 0.000000 0.000000
										CHANNELS 3 Xrotation Yrotation Zrotation
										JOINT RightHandRing3
										{
											OFFSET -3.295807 0.000000 0.000000
											CHANNELS 3 Xrotation Yrotation Zrotation
											End Site
											{
												OFFSET 1.281006 3.013344 0.375733
											}
										}
									}
								}
								JOINT RightHandPinky1
								{
									OFFSET -10.518692 -0.960396 -5.730441
									CHANNELS 3 Xrotation Yrotation Zrotation
									JOINT RightHandPinky2
									{
										OFFSET -2.861649 0.000000 0.000000
										CHANNELS 3 Xrotation Yrotation Zrotation
										JOINT RightHandPinky3
										{
											OFFSET -2.863380 0.000000 0.000000
											CHANNELS 3 Xrotation Yrotation Zrotation
											End Site
											{
												OFFSET 0.843597 2.711159 0.369971
											}
										}
									}
								}
							}
							JOINT RSleeve
							{
								OFFSET -6.676277 -0.344902 -1.011730
								CHANNELS 3 Xrotation Yrotation Zrotation
								End Site
								{
									OFFSET 0.000000 14.885353 0.000000
								}
							}
						}
					}
				}
				JOINT Backpack
				{
					OFFSET 0.000000 -2.471497 36.677502
					CHANNELS 3 Xrotation Yrotation Zrotation
					End Site
					{
						OFFSET 0.000000 20.427315 0.000000
					}
				}
				JOINT Hood
				{
					OFFSET 0.000000 18.754097 -10.431000
					CHANNELS 3 Xrotation Yrotation Zrotation
					JOINT Hood1
					{
						OFFSET 0.000000 -5.011002 -7.685901
						CHANNELS 3 Xrotation Yrotation Zrotation
						End Site
						{
							OFFSET 0.000000 9.175140 0.000000
						}
					}
				}
				JOINT LHoodieString
				{
					OFFSET 5.250500 16.397697 3.089900
					CHANNELS 3 Xrotation Yrotation Zrotation
					JOINT LHoodieString1
					{
						OFFSET 0.257700 -6.364304 3.694600
						CHANNELS 3 Xrotation Yrotation Zrotation
						JOINT LHoodieString2
						{
							OFFSET 0.000000 -9.643799 2.679100
							CHANNELS 3 Xrotation Yrotation Zrotation
							End Site
							{
								OFFSET 0.000000 10.009018 0.000000
							}
						}
					}
				}
				JOINT RHoodieString
				{
					OFFSET -5.250500 16.397697 3.089900
					CHANNELS 3 Xrotation Yrotation Zrotation
					JOINT RHoodieString1
					{
						OFFSET -0.257700 -6.364304 3.694600
						CHANNELS 3 Xrotation Yrotation Zrotation
						JOINT RHoodieString2
						{
							OFFSET 0.000000 -9.643799 2.679100
							CHANNELS 3 Xrotation Yrotation Zrotation
							End Site
							{
								OFFSET 0.000000 10.009018 0.000000
							}
						}
					}
				}
			}
			JOINT LBackpack_Strap
			{
				OFFSET 15.223200 -7.719803 -6.610900
				CHANNELS 3 Xrotation Yrotation Zrotation
				End Site
				{
					OFFSET 0.000000 16.040596 0.000000
				}
			}
			JOINT RBackpack_Strap
			{
				OFFSET -15.223000 -7.719803 -6.610900
				CHANNELS 3 Xrotation Yrotation Zrotation
				End Site
				{
					OFFSET 0.000000 16.040596 0.000000
				}
			}
		}
	}
	JOINT BoyFacialAnim_Joint
	{
		OFFSET 1.000000 -82.208099 -1.550900
		CHANNELS 3 Xrotation Yrotation Zrotation
		End Site
		{
			OFFSET 0.000000 30.012791 0.000000
		}
	}
}
MOTION
Frames: 4
Frame Time: 0.033333
0.029911 51.098389 -1.427330 0.494824 -2.654874 -2.503697 0.000000 -0.000000 0.000000 -89.220719 -7.892293 6.143678 81.275788 0.572597 3.347025 7.390245 -0.370042 -8.708359 -0.000000 0.000001 0.000000 -0.000000 0.000001 0.000000 -0.000000 -0.000000 0.000001 -89.195372 -1.104997 -11.552036 83.936024 -1.799982 2.675824 2.670236 0.067553 -1.169153 0.000000 -0.000001 0.000000 0.000000 -0.000001 0.000000 0.000000 0.000001 0.000000 4.378249 0.310866 2.080551 2.316791 0.020424 0.906763 2.316845 0.012230 0.906962 -11.045685 -0.932996 0.852251 -1.094280 2.137464 -5.589479 -0.000000 0.000000 0.000000 -0.000000 0.000000 0.000000 -0.000000 0.000000 0.000000 -0.268927 -10.096366 -11.839143 -4.023027 -7.986976 -58.384307 0.000314 -82.894632 0.000280 35.471983 17.842766 17.789303 5.135092 14.349198 5.148235 -16.437460 12.292988 -2.639746 0.000003 0.000002 -0.000001 -0.238871 -1.515248 -7.165672 0.396707 2.307595 -19.506535 -0.000003 -0.000000 -0.000004 -0.008430 0.201801 -4.960842 0.126512 1.316470 -10.977667 0.000001 0.000000 -0.000003 0.061910 1.868452 -1.933466 0.047502 0.809039 -6.719752 -0.000001 0.000000 -0.000002 -0.504238 4.256524 6.535852 0.223052 -2.305414 -15.167195 0.000002 0.000000 -0.000000 -0.000000 0.000000 -0.000002 0.901773 1.227844 6.124849 -16.818569 20.325502 70.737469 0.000059 73.026054 -0.000063 55.305459 -21.563761 -0.280975 -27.627868 -7.339159 -0.460160 3.527722 -14.432654 -11.502680 -0.000000 0.000006 0.000001 0.222075 1.975811 -8.703737 0.028464 -0.629827 5.175299 -0.000001 0.000001 0.000002 0.156069 1.857685 -5.894198 -0.000002 -0.000005 -0.000004 0.000000 -0.000001 0.000001 0.144823 1.878448 -5.249970 -0.000006 -0.000027 0.000140 -0.000000 0.000002 -0.000001 -0.691791 -3.114765 -10.722979 0.000026 -0.018405 0.151136 -0.000000 0.000001 0.000000 -0.000000 0.000000 -0.000000 0.000000 -0.000000 -0.000000 0.000000 -0.000000 -0.000000 0.000000 -0.000000 -0.000000 0.000000 -0.000000 -0.000000 0.000000 -0.000000 -0.000000 0.000000 -0.000000 -0.000000 0.000000 -0.000000 -0.000000 0.000000 -0.000000 -0.000000 0.000000 -0.000000 -0.000000 -0.000000 -0.000000 -0.000000 -0.000000 -0.000000 -0.000000 0.000000 -0.000000 0.000000 
0.051161 51.115158 -1.439325 0.459662 -2.573637 -2.498101 -0.000000 -0.000000 -0.000000 -89.173768 -7.856488 6.055207 81.226597 0.601798 3.343743 7.394356 -0.381499 -8.673200 -0.000000 -0.000001 -0.000000 -0.000000 -0.000001 -0.000000 0.000000 0.000000 0.000001 -89.142937 -1.017630 -11.535190 83.927199 -1.904273 2.590953 2.546931 0.056698 -1.013185 0.000000 0.000002 0.000000 0.000000 0.000002 0.000000 -0.000000 -0.000001 0.000000 4.420668 0.311195 2.086554 2.346695 0.017279 0.938104 2.346741 0.011596 0.938204 -11.075186 -0.911141 0.937818 -1.086472 2.470745 -5.791535 0.000000 0.000000 0.000000 0.000000 0.000000 0.000000 0.000000 0.000000 0.000000 -0.264273 -10.071224 -11.838705 -4.185655 -8.066716 -58.516047 0.000360 -82.754476 0.000355 35.543942 17.749343 17.779408 5.149812 14.599702 5.283519 -16.942937 12.519074 -2.347685 0.000006 0.000001 0.000001 -0.225088 -1.488485 -6.906658 0.339581 2.139659 -18.034490 0.000000 0.000001 -0.000005 -0.001965 0.274236 -4.923233 0.120041 1.282724 -10.692704 -0.000001 -0.000002 0.000003 0.060779 1.855454 -1.910019 0.039361 0.736816 -6.117621 -0.000002 -0.000001 0.000001 -0.507694 4.048053 6.832388 0.228488 -2.285498 -15.338108 0.000003 0.000000 0.000002 0.000002 0.000001 0.000001 0.901504 1.237342 6.138275 -16.791506 20.320448 70.559631 -0.000067 73.122714 0.000074 55.285255 -21.585163 -0.185129 -27.609904 -7.389211 -0.544617 3.521350 -14.439781 -11.500760 -0.000001 -0.000000 0.000003 0.225683 1.982045 -8.867604 0.030157 -0.648252 5.327322 -0.000000 0.000001 0.000000 0.160186 1.883988 -5.960392 0.000002 -0.000013 0.000040 -0.000002 0.000001 -0.000002 0.142252 1.850538 -5.253424 0.000001 -0.000017 0.000166 0.000001 -0.000000 0.000000 -0.679898 -3.082149 -10.645021 0.000012 -0.008829 0.072426 -0.000002 -0.000001 0.000000 -0.000001 0.000000 -0.000000 0.000001 0.000000 -0.000000 0.000001 0.000000 -0.000000 0.000001 0.000000 -0.000000 0.000001 0.000000 -0.000000 0.000001 0.000000 -0.000000 0.000001 -0.000000 -0.000000 0.000001 0.000000 -0.000000 0.000001 0.000000 -0.000000 0.000001 -0.000000 -0.000000 0.000000 -0.000000 0.000000 0.000000 -0.000000 0.000000 -0.000000 -0.000000 -0.000000 
0.074917 51.131531 -1.447965 0.434783 -2.500525 -2.499020 -0.000000 -0.000000 0.000000 -89.128484 -7.893148 5.888812 81.183615 0.725003 3.371984 7.387932 -0.397704 -8.721034 0.000000 -0.000000 -0.000000 0.000000 -0.000000 -0.000000 -0.000000 0.000000 -0.000000 -89.117576 -1.063519 -11.648080 83.934330 -1.866273 2.542172 2.398488 0.049687 -1.004451 0.000000 0.000000 -0.000000 0.000000 0.000000 -0.000000 -0.000001 0.000000 0.000000 4.486456 0.294613 2.113967 2.391385 0.007681 0.993187 2.391454 0.005475 0.993093 -11.067703 -0.888422 0.992634 -1.127839 2.778559 -6.051458 0.000000 0.000000 -0.000000 0.000000 0.000000 -0.000000 0.000000 0.000000 -0.000000 -0.261080 -10.054918 -11.830569 -4.319827 -8.114874 -58.643191 0.000455 -82.679645 0.000456 35.541818 17.662553 17.836542 5.441753 14.882004 5.329799 -17.458580 12.748331 -2.050341 -0.000000 -0.000002 -0.000001 -0.207816 -1.457859 -6.559731 0.275291 1.931160 -16.224407 -0.000000 0.000000 -0.000003 0.006510 0.369033 -4.835298 0.113491 1.247517 -10.395804 -0.000001 0.000000 -0.000001 0.059669 1.832104 -1.900886 0.032339 0.667968 -5.543875 0.000002 0.000001 -0.000002 -0.496260 3.877323 6.920068 0.228751 -2.284523 -15.346373 0.000004 0.000001 -0.000000 0.000001 0.000000 -0.000001 0.904080 1.241515 6.190737 -16.803264 20.280389 70.392087 0.000044 73.320640 -0.000058 55.370038 -21.590124 -0.038287 -27.604785 -7.416585 -0.596555 3.507529 -14.452163 -11.502182 0.000000 -0.000001 0.000001 0.231769 1.998817 -9.081457 0.031120 -0.658490 5.411628 0.000001 0.000000 0.000004 0.164568 1.906106 -6.059088 -0.000001 -0.000017 0.000092 -0.000001 0.000001 0.000002 0.141114 1.831715 -5.284529 0.000002 0.000012 0.000079 0.000001 -0.000001 0.000002 -0.666154 -3.033368 -10.578944 0.000001 -0.002224 0.018437 -0.000000 0.000000 0.000000 0.000001 -0.000001 0.000001 0.000000 0.000000 -0.000000 0.000000 0.000000 -0.000000 0.000000 0.000000 -0.000000 0.000000 0.000000 -0.000000 0.000000 0.000000 -0.000000 -0.000001 0.000000 -0.000000 0.000000 0.000000 -0.000000 0.000000 0.000000 -0.000000 -0.000001 0.000000 -0.000000 0.000001 0.000000 -0.000000 0.000001 0.000000 -0.000000 -0.000000 -0.000000 0.000000 
0.097011 51.143188 -1.447415 0.423311 -2.434406 -2.500271 0.000000 -0.000000 0.000000 -89.102400 -7.934232 5.727811 81.160693 0.833620 3.405757 7.379980 -0.411769 -8.786660 0.000000 -0.000000 -0.000000 0.000000 -0.000000 -0.000000 0.000001 0.000001 0.000001 -89.091956 -1.149958 -11.816788 83.925512 -1.675105 2.533677 2.404675 0.042954 -1.057368 -0.000000 -0.000001 -0.000000 -0.000000 -0.000001 -0.000000 -0.000000 0.000000 -0.000000 4.563122 0.256094 2.151041 2.436956 -0.007262 1.052716 2.437089 -0.006173 1.052375 -11.017123 -0.873986 1.033714 -1.188156 3.036976 -6.309663 -0.000000 0.000000 -0.000000 -0.000000 0.000000 -0.000000 -0.000000 0.000000 -0.000000 -0.261456 -10.059643 -11.816988 -4.417730 -8.094559 -58.779365 0.000415 -82.674659 0.000453 35.530675 17.584259 17.915793 6.118766 14.979479 5.149746 -17.841933 12.918256 -1.829541 0.000005 -0.000002 -0.000003 -0.190707 -1.447677 -6.144246 0.194347 1.627570 -13.618078 -0.000002 0.000001 -0.000005 0.015683 0.474943 -4.713251 0.106152 1.206822 -10.052981 -0.000000 -0.000001 -0.000002 0.058004 1.824429 -1.850733 0.027285 0.613660 -5.091884 0.000002 0.000001 -0.000002 -0.468370 3.770444 6.718869 0.222401 -2.307796 -15.146885 -0.000001 -0.000000 0.000001 -0.000002 0.000001 -0.000002 0.911619 1.233441 6.305096 -16.841426 20.224434 70.232424 -0.000041 73.556828 0.000044 55.440485 -21.568557 0.047048 -27.613842 -7.419574 -0.614384 3.495229 -14.461466 -11.506257 0.000000 0.000004 0.000004 0.241665 2.031511 -9.367396 0.031052 -0.657752 5.405424 -0.000002 -0.000001 0.000002 0.169990 1.926985 -6.212697 0.000003 -0.000030 0.000114 -0.000000 0.000000 -0.000000 0.142375 1.828984 -5.358516 -0.000004 -0.000006 -0.000006 -0.000000 -0.000001 0.000004 -0.650794 -2.964037 -10.537700 0.000001 -0.000018 0.000071 0.000001 -0.000001 0.000000 0.000001 0.000000 0.000002 0.000000 -0.000000 -0.000000 0.000000 -0.000000 -0.000000 0.000000 -0.000000 -0.000000 0.000000 -0.000000 -0.000000 0.000000 -0.000000 -0.000000 -0.000000 -0.000000 -0.000000 0.000000 -0.000000 -0.000000 0.000000 -0.000000 -0.000000 -0.000000 -0.000000 -0.000000 0.000000 0.000000 0.000000 0.000000 0.000000 0.000000 0.000000 -0.000000 0.000000 
